<?xml version="1.0" encoding="UTF-8"?>
<svg id="Layer_2" data-name="Layer 2" xmlns="http://www.w3.org/2000/svg" viewBox="0 0 220.59 220.59">
  <defs>
    <style>
      .cls-1 {
        fill: #fff;
      }

      .cls-2 {
        opacity: .65;
      }
    </style>
  </defs>
  <g id="art">
    <g class="cls-2">
      <path class="cls-1" d="M0,0v220.59h220.59V0H0ZM176.83,136.59c-.31,6.79-1.39,11.42-2.96,15.48-1.63,4.19-3.81,7.75-7.36,11.3-3.55,3.55-7.1,5.73-11.3,7.36-4.06,1.58-8.69,2.65-15.48,2.96-6.8.31-8.97.38-26.29.38s-19.49-.07-26.29-.38c-6.79-.31-11.42-1.39-15.48-2.96-4.19-1.63-7.75-3.81-11.3-7.36-3.55-3.55-5.73-7.1-7.36-11.3-1.58-4.06-2.65-8.69-2.96-15.48-.31-6.8-.38-8.97-.38-26.29s.07-19.49.38-26.29c.31-6.79,1.39-11.42,2.96-15.48,1.63-4.19,3.81-7.75,7.36-11.3,3.55-3.55,7.1-5.73,11.3-7.36,4.06-1.58,8.69-2.65,15.48-2.96,6.8-.31,8.97-.38,26.29-.38s19.49.07,26.29.38c6.79.31,11.42,1.39,15.48,2.96,4.19,1.63,7.75,3.81,11.3,7.36,3.55,3.55,5.73,7.1,7.36,11.3,1.58,4.06,2.65,8.69,2.96,15.48.31,6.8.38,8.97.38,26.29s-.07,19.49-.38,26.29Z"/>
      <circle class="cls-1" cx="113.44" cy="110.3" r="21.26"/>
      <path class="cls-1" d="M163.16,72.68c-1.16-2.98-2.54-5.1-4.77-7.33-2.23-2.23-4.36-3.61-7.33-4.77-2.25-.87-5.62-1.91-11.84-2.2-6.73-.31-8.74-.37-25.77-.37s-19.05.06-25.77.37c-6.22.28-9.59,1.32-11.84,2.2-2.98,1.16-5.1,2.54-7.33,4.77-2.23,2.23-3.61,4.36-4.77,7.33-.87,2.25-1.91,5.62-2.2,11.84-.31,6.72-.37,8.74-.37,25.77s.06,19.05.37,25.77c.28,6.22,1.32,9.59,2.2,11.84,1.16,2.98,2.54,5.1,4.77,7.33,2.23,2.23,4.36,3.61,7.33,4.77,2.25.87,5.62,1.91,11.84,2.2,6.72.31,8.74.37,25.77.37s19.05-.06,25.77-.37c6.22-.28,9.59-1.32,11.84-2.2,2.98-1.16,5.1-2.54,7.33-4.77,2.23-2.23,3.61-4.36,4.77-7.33.87-2.25,1.91-5.62,2.2-11.84.31-6.73.37-8.74.37-25.77s-.06-19.05-.37-25.77c-.28-6.22-1.32-9.59-2.2-11.84ZM113.44,143.05c-18.09,0-32.75-14.66-32.75-32.75s14.66-32.75,32.75-32.75,32.75,14.66,32.75,32.75-14.66,32.75-32.75,32.75ZM147.49,83.91c-4.23,0-7.65-3.43-7.65-7.65s3.43-7.65,7.65-7.65,7.65,3.43,7.65,7.65-3.43,7.65-7.65,7.65Z"/>
    </g>
  </g>
</svg>